<?xml version="1.0" standalone="no"?><!DOCTYPE svg PUBLIC "-//W3C//DTD SVG 1.1//EN"
        "http://www.w3.org/Graphics/SVG/1.1/DTD/svg11.dtd">
<svg t="1661423504614" class="icon" viewBox="0 0 1024 1024" version="1.1" xmlns="http://www.w3.org/2000/svg" p-id="7407"
     xmlns:xlink="http://www.w3.org/1999/xlink" width="64" height="64">
    <defs>
        <style type="text/css"></style>
    </defs>
    <path d="M918.144 105.877333c27.776 27.797333 27.306667 73.344-1.066667 101.738667L634.282667 490.666667c-28.373333 28.373333-73.877333 28.842667-101.653334 1.066666-27.776-27.818667-27.306667-73.365333 1.066667-101.76L816.490667 106.944c28.373333-28.373333 73.877333-28.842667 101.653333-1.045333zM492.117333 532.266667c27.776 27.818667 27.306667 73.365333-1.066666 101.76L208.256 917.056c-28.373333 28.373333-73.877333 28.842667-101.653333 1.045333-27.776-27.797333-27.306667-73.344 1.066666-101.738666L390.464 533.333333c28.373333-28.373333 73.877333-28.842667 101.653333-1.066666z"
          fill="#ff002fd1" opacity=".955" p-id="7408"></path>
    <path d="M916.864 917.589333c-27.776 27.797333-73.28 27.328-101.632-1.066666L106.922667 207.637333c-28.373333-28.373333-28.842667-73.941333-1.066667-101.738666s73.28-27.306667 101.653333 1.066666l708.309334 708.906667c28.352 28.373333 28.821333 73.941333 1.045333 101.738667z"
          fill="#1754ffcc" opacity=".955" p-id="7409"></path>
</svg>