<?xml version="1.0" encoding="UTF-8" ?>
<!DOCTYPE svg PUBLIC "-//W3C//DTD SVG 1.1//EN" "http://www.w3.org/Graphics/SVG/1.1/DTD/svg11.dtd">
<svg viewBox="0 0 3769 1382" version="1.1" xmlns="http://www.w3.org/2000/svg">
<g id="#cb101fff">
<path fill="#cb101f" opacity="1.00" d=" M 513.31 142.80 C 560.76 95.15 608.73 48.03 656.28 0.49 C 699.73 43.54 742.63 87.17 785.78 130.54 C 769.41 140.90 753.57 152.11 737.02 162.17 C 742.76 155.61 749.24 149.75 755.11 143.31 C 732.30 120.32 710.42 96.39 686.92 74.08 C 676.74 64.08 666.45 54.19 656.31 44.14 C 622.52 76.33 589.43 109.22 557.12 142.89 C 583.90 170.62 610.48 198.56 638.40 225.15 C 629.42 230.70 620.14 235.75 611.06 241.12 C 578.53 208.30 545.78 175.69 513.31 142.80 Z" />
<path fill="#cb101f" opacity="1.00" d=" M 3716.37 593.45 C 3730.95 582.20 3745.31 570.64 3759.74 559.18 C 3759.60 591.45 3759.73 623.72 3759.67 655.98 C 3745.47 665.41 3730.71 673.95 3716.33 683.07 C 3716.33 653.20 3716.26 623.32 3716.37 593.45 Z" />
<path fill="#cb101f" opacity="1.00" d=" M 1479.28 622.33 C 1488.97 611.03 1498.33 599.43 1507.15 587.44 C 1512.49 592.25 1517.46 597.45 1522.73 602.36 C 1523.04 632.47 1522.57 662.59 1522.96 692.69 C 1568.94 657.80 1614.50 622.34 1660.23 587.11 C 1661.69 588.17 1663.41 589.15 1664.13 590.94 C 1669.88 603.27 1674.28 616.32 1676.35 629.79 C 1636.06 660.93 1595.58 691.84 1555.39 723.11 C 1573.12 734.52 1591.14 745.49 1608.97 756.76 C 1596.54 766.18 1583.97 775.41 1571.72 785.06 C 1555.42 775.02 1539.34 764.61 1522.94 754.74 C 1522.66 777.18 1522.90 799.63 1522.81 822.08 C 1508.27 833.43 1493.27 844.19 1479.23 856.18 C 1479.19 778.23 1479.07 700.28 1479.28 622.33 Z" />
<path fill="#cb101f" opacity="1.00" d=" M 3444.28 599.34 L 3445.04 599.07 C 3444.86 606.84 3444.51 614.62 3444.91 622.39 C 3451.50 619.04 3457.70 614.95 3463.84 610.84 C 3469.95 606.43 3476.48 602.62 3482.99 598.82 C 3484.58 600.77 3487.53 602.17 3487.76 604.93 C 3488.06 640.62 3487.44 676.34 3488.08 712.03 C 3489.06 747.71 3509.50 781.29 3539.44 800.27 C 3530.54 808.92 3522.40 818.41 3516.15 829.18 C 3513.68 830.24 3511.26 831.38 3508.88 832.54 C 3469.65 805.41 3444.80 758.75 3444.29 711.04 C 3444.08 673.81 3444.14 636.56 3444.28 599.34 Z" />
<path fill="#cb101f" opacity="1.00" d=" M 643.14 603.20 C 645.28 602.61 647.33 606.91 649.48 608.27 C 635.93 622.49 621.68 636.05 607.81 649.97 C 605.84 647.99 603.88 646.00 601.95 643.99 C 615.52 630.23 629.41 616.79 643.14 603.20 Z" />
<path fill="#cb101f" opacity="1.00" d=" M 668.24 604.05 L 669.02 603.31 C 682.27 616.64 695.65 629.85 708.79 643.27 C 707.78 645.93 705.12 647.48 703.18 649.42 C 689.83 635.98 676.43 622.58 663.04 609.18 C 664.73 607.43 666.45 605.71 668.24 604.05 Z" />
<path fill="#cb101f" opacity="1.00" d=" M 3327.91 631.94 C 3341.86 627.75 3355.92 623.95 3369.95 620.01 C 3382.52 656.47 3377.98 699.99 3353.74 730.71 C 3338.86 750.05 3315.16 762.80 3290.47 761.86 C 3322.52 795.53 3355.45 828.39 3387.54 862.03 C 3367.31 862.36 3347.08 862.12 3326.86 862.14 C 3314.64 849.43 3301.82 837.22 3290.12 824.08 C 3282.05 792.73 3284.32 758.32 3299.14 729.25 C 3302.64 719.21 3312.96 714.66 3321.17 709.14 C 3330.13 702.52 3339.00 695.77 3348.17 689.44 C 3340.52 684.06 3333.40 694.18 3325.48 694.58 C 3334.89 675.23 3335.65 651.97 3327.91 631.94 Z" />
<path fill="#cb101f" opacity="1.00" d=" M 533.21 666.30 C 542.73 663.35 555.37 667.91 557.09 678.67 C 553.99 679.18 550.90 679.67 547.81 680.23 C 546.22 673.67 537.51 670.82 532.68 675.65 C 529.42 679.77 533.83 684.02 537.71 685.24 C 544.73 687.81 552.78 690.35 556.57 697.41 C 560.53 704.25 556.52 713.93 548.92 716.02 C 538.04 720.16 521.69 715.49 520.14 702.46 C 521.89 701.91 523.69 701.54 525.48 701.17 C 529.24 707.91 538.07 711.53 545.25 708.24 C 548.88 706.35 548.15 701.03 544.81 699.23 C 537.54 694.45 527.24 693.69 522.39 685.61 C 518.32 677.54 524.91 667.93 533.21 666.30 Z" />
<path fill="#cb101f" opacity="1.00" d=" M 564.87 666.71 C 568.25 666.65 571.63 666.65 575.02 666.70 C 575.29 678.45 574.61 690.23 575.38 701.96 C 576.07 709.00 585.38 711.75 590.57 707.63 C 593.74 705.15 594.46 700.84 594.54 697.05 C 594.58 686.93 594.45 676.81 594.58 666.70 C 597.84 666.66 601.10 666.66 604.37 666.70 C 604.47 677.12 604.42 687.55 604.41 697.98 C 604.35 704.44 602.22 711.92 596.02 715.05 C 589.62 718.23 581.77 718.16 575.11 715.86 C 568.31 713.27 565.07 705.85 564.92 698.99 C 564.69 688.23 564.83 677.47 564.87 666.71 Z" />
<path fill="#cb101f" opacity="1.00" d=" M 633.42 667.30 C 640.76 666.21 651.07 666.20 659.41 667.47 C 670.51 669.66 672.11 685.75 663.21 691.66 C 670.97 697.39 668.14 707.98 669.99 716.19 C 666.61 716.23 663.24 716.23 659.87 716.19 C 659.31 710.49 659.36 704.62 657.83 699.09 C 655.29 693.45 648.13 695.92 643.32 695.36 C 643.33 702.30 643.38 709.24 643.28 716.19 C 639.94 716.25 636.60 716.23 633.28 716.10 C 633.44 699.83 633.15 683.56 633.42 667.30 M 643.30 674.40 C 643.29 678.81 643.30 683.21 643.30 687.62 C 647.04 687.47 650.81 687.80 654.54 687.39 C 659.34 686.04 660.43 678.48 656.18 675.84 C 652.39 673.35 647.55 674.87 643.30 674.40 Z" />
<path fill="#cb101f" opacity="1.00" d=" M 676.89 666.70 C 680.27 666.65 683.65 666.65 687.03 666.70 C 687.31 678.44 686.62 690.23 687.40 701.95 C 688.08 708.99 697.38 711.74 702.57 707.64 C 705.74 705.15 706.49 700.84 706.56 697.04 C 706.59 686.93 706.47 676.81 706.60 666.70 C 709.86 666.66 713.12 666.66 716.38 666.69 C 716.48 677.12 716.44 687.55 716.43 697.98 C 716.36 704.00 714.61 710.81 709.30 714.30 C 703.24 718.14 695.44 718.08 688.69 716.42 C 681.49 714.49 677.29 707.16 677.04 700.04 C 676.60 688.94 676.91 677.81 676.89 666.70 Z" />
<path fill="#cb101f" opacity="1.00" d=" M 745.43 667.33 C 748.68 665.77 754.75 667.08 759.13 666.71 C 764.93 679.23 769.78 692.19 775.95 704.53 C 776.65 691.96 776.15 679.34 776.22 666.76 C 779.52 666.66 782.83 666.61 786.14 666.71 C 786.24 683.20 786.20 699.69 786.15 716.18 C 781.65 716.24 777.16 716.22 772.66 716.24 C 766.70 703.54 761.72 690.38 755.43 677.85 C 755.21 690.62 755.47 703.40 755.29 716.18 C 751.95 716.26 748.62 716.23 745.29 716.05 C 745.49 699.81 745.20 683.57 745.43 667.33 Z" />
<path fill="#cb101f" opacity="1.00" d=" M 795.01 666.70 C 806.19 666.58 817.37 666.74 828.55 666.62 C 828.63 669.29 828.67 671.96 828.73 674.64 C 820.89 674.53 813.05 674.46 805.21 674.69 C 805.28 678.68 805.27 682.67 805.28 686.67 C 812.35 686.56 819.42 686.60 826.49 686.66 C 826.50 689.23 826.50 691.80 826.50 694.38 C 819.42 694.43 812.34 694.49 805.27 694.35 C 805.27 698.95 805.28 703.54 805.24 708.14 C 813.36 708.41 821.50 708.20 829.63 708.28 C 829.58 710.77 829.67 713.27 829.53 715.77 C 818.11 716.84 806.50 715.96 795.00 716.20 C 794.99 699.70 794.99 683.20 795.01 666.70 Z" />
<path fill="#cb101f" opacity="1.00" d=" M 493.63 685.97 C 496.86 684.22 500.10 682.49 503.39 680.84 C 503.54 692.62 503.49 704.41 503.42 716.19 C 500.15 716.22 496.89 716.22 493.64 716.19 C 493.54 706.12 493.55 696.04 493.63 685.97 Z" />
<path fill="#cb101f" opacity="1.00" d=" M 2650.69 706.03 C 2666.05 697.69 2681.17 688.91 2696.65 680.79 C 2696.51 682.17 2696.73 683.52 2697.31 684.84 C 2686.99 721.91 2701.33 763.17 2730.41 787.78 C 2729.93 788.25 2728.97 789.19 2728.48 789.66 C 2718.11 798.70 2707.27 807.21 2696.72 816.04 C 2667.12 787.97 2648.07 746.90 2650.69 706.03 Z" />
<path fill="#cb101f" opacity="1.00" d=" M 2956.35 698.55 C 2970.43 706.15 2984.74 714.13 3000.79 716.71 C 2999.54 735.72 2994.68 754.43 2986.75 771.73 C 2974.84 796.38 2955.85 817.25 2933.43 832.79 C 2920.58 824.40 2907.07 816.20 2897.40 804.07 C 2915.52 793.79 2931.65 779.46 2942.53 761.57 C 2953.82 742.81 2958.93 720.33 2956.35 698.55 Z" />
<path fill="#cb101f" opacity="1.00" d=" M 3079.36 708.09 C 3086.71 705.87 3093.97 703.37 3101.30 701.07 C 3101.29 706.78 3101.30 712.49 3101.26 718.21 C 3160.59 718.49 3219.93 718.18 3279.26 718.37 C 3248.10 732.87 3216.90 747.30 3185.61 761.51 C 3157.51 762.00 3129.36 761.38 3101.25 761.83 C 3101.33 774.82 3101.32 787.82 3101.26 800.82 C 3099.23 801.72 3097.25 802.64 3095.30 803.62 C 3082.32 808.45 3070.15 815.17 3057.64 821.06 C 3058.10 785.87 3056.62 749.95 3057.63 715.25 C 3065.02 713.34 3072.21 710.75 3079.36 708.09 Z" />
<path fill="#cb101f" opacity="1.00" d=" M 399.82 738.44 C 413.15 731.21 426.11 723.26 439.72 716.57 C 489.21 767.23 538.86 817.72 589.16 867.56 C 577.33 876.11 565.68 884.92 553.60 893.12 C 502.37 841.54 450.96 790.12 399.82 738.44 Z" />
<path fill="#cb101f" opacity="1.00" d=" M 618.54 735.81 C 644.47 735.63 670.40 735.63 696.32 735.81 C 683.52 758.44 670.49 780.95 657.34 803.37 C 644.48 780.81 631.18 758.50 618.54 735.81 Z" />
<path fill="#cb101f" opacity="1.00" d=" M 2371.74 862.64 C 2385.96 854.16 2400.33 845.89 2414.84 837.89 C 2414.81 846.17 2414.85 854.45 2414.80 862.74 C 2400.44 862.58 2386.09 862.78 2371.74 862.64 Z" />
</g>
<g id="#1b00feff">
<path fill="#1b00fe" opacity="1.00" d=" M 737.02 162.17 C 753.57 152.11 769.41 140.90 785.78 130.54 C 790.12 134.89 794.44 139.24 798.78 143.59 C 751.02 190.96 703.43 238.51 655.68 285.89 C 640.78 270.99 625.91 256.06 611.06 241.12 C 620.14 235.75 629.42 230.70 638.40 225.15 C 644.28 230.78 650.01 236.55 655.90 242.16 C 683.09 215.65 710.62 189.49 737.02 162.17 Z" />
<path fill="#1b00fe" opacity="1.00" d=" M 652.00 306.98 C 655.23 306.98 658.46 307.00 661.69 307.12 C 661.54 360.79 661.61 414.46 661.65 468.13 C 658.55 470.58 655.34 472.86 652.05 475.03 C 651.94 419.01 652.03 363.00 652.00 306.98 Z" />
<path fill="#1b00fe" opacity="1.00" d=" M 674.78 395.67 C 687.30 407.72 699.28 420.31 711.68 432.47 C 699.90 441.29 687.85 449.78 675.72 458.12 L 674.99 458.58 C 674.52 437.62 674.60 416.63 674.78 395.67 Z" />
<path fill="#1b00fe" opacity="1.00" d=" M 387.39 648.57 C 469.79 566.53 552.17 484.45 634.82 402.67 C 634.95 422.46 635.30 442.25 635.14 462.03 C 635.19 464.46 632.92 465.86 631.48 467.48 C 600.93 497.17 570.96 527.54 540.02 556.77 C 526.82 564.27 515.21 574.22 502.58 582.61 C 483.20 597.00 463.27 610.64 443.64 624.69 C 434.83 630.81 426.19 637.17 417.28 643.15 C 407.66 646.13 397.65 650.87 387.39 648.57 Z" />
<path fill="#1b00fe" opacity="1.00" d=" M 828.53 563.31 C 831.13 561.58 833.59 559.63 836.08 557.74 C 859.05 580.71 881.90 603.79 904.86 626.76 C 898.65 628.48 892.67 631.05 886.29 632.09 C 876.92 602.78 855.33 578.11 828.53 563.31 Z" />
<path fill="#1b00fe" opacity="1.00" d=" M 3236.53 769.42 C 3242.80 766.28 3248.16 760.12 3255.33 759.51 C 3250.66 764.59 3246.64 770.22 3242.86 775.97 C 3240.69 773.82 3238.57 771.65 3236.53 769.42 Z" />
<path fill="#1b00fe" opacity="1.00" d=" M 659.74 1142.49 C 669.15 1137.25 678.96 1132.75 688.47 1127.70 C 704.15 1143.28 719.78 1158.92 735.25 1174.72 C 726.02 1179.53 716.86 1184.47 707.70 1189.43 C 691.83 1173.66 675.66 1158.21 659.74 1142.49 Z" />
<path fill="#1b00fe" opacity="1.00" d=" M 553.75 1198.01 C 584.02 1182.55 613.52 1165.50 644.18 1150.79 C 614.43 1179.10 585.66 1208.40 557.10 1237.90 C 564.83 1245.87 572.59 1253.81 580.26 1261.85 C 571.50 1267.46 562.37 1272.49 553.85 1278.48 C 540.16 1265.10 526.80 1251.38 513.30 1237.79 C 526.80 1224.57 539.75 1210.65 553.75 1198.01 Z" />
</g>
<g id="#1d1736fe">
<path fill="#1d1736" opacity="1.00" d=" M 711.68 432.47 C 753.07 474.31 794.82 515.78 836.08 557.74 C 833.59 559.63 831.13 561.58 828.53 563.31 L 827.88 563.70 C 811.55 554.40 792.91 550.68 774.43 548.83 C 770.15 546.34 765.57 544.51 760.93 542.86 C 732.30 514.89 703.69 486.77 675.72 458.12 C 687.85 449.78 699.90 441.29 711.68 432.47 Z" />
<path fill="#1d1736" opacity="1.00" d=" M 652.05 475.03 C 655.34 472.86 658.55 470.58 661.65 468.13 C 661.65 495.04 661.54 521.95 661.71 548.86 C 658.47 548.98 655.23 549.02 652.00 549.02 C 652.03 524.36 651.94 499.69 652.05 475.03 Z" />
<path fill="#1d1736" opacity="1.00" d=" M 615.32 549.21 C 621.47 555.80 628.06 561.98 634.22 568.58 C 632.21 570.47 630.26 572.42 628.41 574.46 C 622.98 568.59 617.03 563.23 611.65 557.32 C 612.93 554.64 614.16 551.94 615.32 549.21 Z" />
<path fill="#1d1736" opacity="1.00" d=" M 1191.87 600.39 C 1196.07 590.62 1200.40 580.73 1207.00 572.31 C 1214.23 579.33 1221.46 586.37 1228.29 593.78 C 1232.18 626.15 1249.73 656.17 1274.42 677.16 C 1271.44 677.36 1267.90 677.86 1266.03 674.98 C 1241.99 649.44 1217.02 624.83 1191.87 600.39 Z" />
<path fill="#1d1736" opacity="1.00" d=" M 178.28 584.65 C 188.27 594.53 198.60 604.23 207.91 614.71 C 209.80 619.39 212.44 623.74 214.10 628.52 C 202.50 615.07 188.93 603.27 173.09 595.06 C 174.78 591.57 176.50 588.09 178.28 584.65 Z" />
<path fill="#1d1736" opacity="1.00" d=" M 417.28 643.15 C 426.19 637.17 434.83 630.81 443.64 624.69 C 452.02 626.86 460.68 627.37 469.27 628.11 C 456.72 641.08 444.01 653.93 431.08 666.53 C 415.97 666.08 400.81 666.87 385.73 665.78 C 396.21 658.19 407.15 651.22 417.28 643.15 Z" />
<path fill="#1d1736" opacity="1.00" d=" M 220.65 637.83 C 233.80 652.49 248.67 666.32 267.07 674.13 C 268.53 675.10 269.70 676.45 270.94 677.68 C 256.34 677.47 241.72 678.08 227.13 677.43 C 230.22 677.37 233.30 677.31 236.38 677.24 C 233.98 663.13 227.30 650.32 220.65 637.83 Z" />
<path fill="#1d1736" opacity="1.00" d=" M 479.73 666.75 C 492.25 666.59 504.78 666.62 517.31 666.73 C 517.32 669.31 517.32 671.89 517.32 674.47 C 512.73 674.51 508.14 674.50 503.55 674.53 C 503.48 676.63 503.43 678.73 503.39 680.84 C 500.10 682.49 496.86 684.22 493.63 685.97 C 493.64 682.20 493.60 678.44 493.48 674.68 C 488.95 674.64 484.42 674.62 479.90 674.72 C 479.78 672.06 479.72 669.40 479.73 666.75 Z" />
<path fill="#1d1736" opacity="1.00" d=" M 270.92 685.77 C 338.28 685.57 405.63 685.67 472.98 685.73 C 473.02 689.86 472.98 694.00 472.99 698.14 C 471.68 697.57 470.60 698.68 469.90 699.63 C 468.62 699.94 467.32 700.07 466.00 700.04 C 400.63 699.93 335.26 700.07 269.89 699.97 C 270.49 695.26 270.77 690.51 270.92 685.77 Z" />
<path fill="#1d1736" opacity="1.00" d=" M 219.13 707.69 C 233.68 706.97 248.27 707.70 262.84 707.32 C 253.84 716.19 245.14 725.38 235.87 733.97 C 238.08 725.48 238.80 716.71 239.74 708.01 C 232.88 707.48 225.99 707.54 219.13 707.69 Z" />
<path fill="#1d1736" opacity="1.00" d=" M 1256.97 710.96 C 1258.63 709.26 1260.19 706.78 1262.95 707.17 C 1276.61 707.12 1290.28 707.10 1303.95 707.23 C 1291.85 719.32 1279.74 731.41 1267.61 743.47 C 1259.56 737.19 1249.52 733.74 1241.90 726.69 C 1246.69 721.22 1252.16 716.40 1256.97 710.96 Z" />
<path fill="#1d1736" opacity="1.00" d=" M 373.73 712.12 C 394.22 711.88 414.72 711.99 435.21 712.07 C 436.70 713.57 438.21 715.07 439.72 716.57 C 426.11 723.26 413.15 731.21 399.82 738.44 C 391.02 729.78 382.23 721.09 373.73 712.12 Z" />
<path fill="#1d1736" opacity="1.00" d=" M 137.35 829.31 C 137.90 829.18 139.00 828.93 139.55 828.80 C 141.30 830.82 136.25 831.69 137.35 829.31 Z" />
</g>
<g id="#200bc9ff">
<path fill="#200bc9" opacity="1.00" d=" M 601.06 546.80 C 603.03 544.84 605.01 542.89 607.01 540.97 C 609.80 543.69 612.53 546.47 615.32 549.21 C 614.16 551.94 612.93 554.64 611.65 557.32 C 608.04 553.89 604.50 550.39 601.06 546.80 Z" />
<path fill="#200bc9" opacity="1.00" d=" M 1176.85 549.41 C 1178.68 546.53 1180.71 544.44 1183.10 548.00 C 1181.00 548.45 1178.91 548.89 1176.85 549.41 Z" />
<path fill="#200bc9" opacity="1.00" d=" M 502.58 582.61 C 515.21 574.22 526.82 564.27 540.02 556.77 C 516.77 580.84 493.01 604.50 469.27 628.11 C 460.68 627.37 452.02 626.86 443.64 624.69 C 463.27 610.64 483.20 597.00 502.58 582.61 Z" />
<path fill="#200bc9" opacity="1.00" d=" M 2298.41 589.26 C 2305.17 595.87 2311.99 602.42 2318.68 609.12 C 2305.87 616.96 2292.78 624.33 2279.91 632.08 C 2269.79 622.07 2259.38 612.35 2249.45 602.15 C 2265.67 597.48 2282.14 593.74 2298.41 589.26 Z" />
<path fill="#200bc9" opacity="1.00" d=" M 2106.31 639.25 C 2120.85 635.86 2135.19 631.70 2149.67 628.07 C 2149.60 656.35 2149.80 684.64 2149.57 712.93 C 2149.16 717.45 2149.88 722.35 2147.91 726.56 C 2136.95 743.74 2130.27 763.69 2129.07 784.05 C 2102.40 831.78 2048.34 861.60 1994.01 861.67 C 1947.21 862.68 1899.99 842.17 1869.97 806.02 C 1848.20 780.16 1835.16 746.90 1834.41 713.05 C 1848.92 709.26 1863.35 705.15 1877.80 701.15 C 1877.70 713.53 1878.75 726.02 1882.30 737.94 C 1889.83 764.92 1908.82 788.01 1932.75 802.25 C 1957.82 816.90 1988.51 821.69 2016.86 815.34 C 2063.09 806.30 2101.75 765.48 2105.60 718.09 C 2107.14 691.85 2105.96 665.53 2106.31 639.25 Z" />
<path fill="#200bc9" opacity="1.00" d=" M 387.39 648.57 C 397.65 650.87 407.66 646.13 417.28 643.15 C 407.15 651.22 396.21 658.19 385.73 665.78 C 380.53 666.58 375.26 665.65 370.04 665.77 C 375.84 660.05 381.49 654.18 387.39 648.57 Z" />
<path fill="#200bc9" opacity="1.00" d=" M 3323.91 697.43 C 3329.39 695.58 3334.53 692.85 3340.05 691.07 C 3332.23 697.05 3324.13 702.67 3316.00 708.21 C 3318.78 704.74 3321.50 701.19 3323.91 697.43 Z" />
<path fill="#200bc9" opacity="1.00" d=" M 3279.26 718.37 C 3288.61 718.26 3298.36 719.03 3307.11 714.97 C 3289.35 728.83 3270.85 742.30 3256.16 759.48 L 3255.33 759.51 C 3248.16 760.12 3242.80 766.28 3236.53 769.42 C 3233.98 766.90 3231.46 764.37 3229.01 761.78 C 3214.54 761.48 3200.06 761.99 3185.61 761.51 C 3216.90 747.30 3248.10 732.87 3279.26 718.37 Z" />
<path fill="#200bc9" opacity="1.00" d=" M 1573.56 786.05 C 1592.10 780.14 1611.15 775.86 1629.65 769.80 C 1674.20 797.38 1718.52 825.33 1762.99 853.04 C 1767.57 856.06 1772.50 858.59 1776.78 862.08 C 1751.86 862.66 1726.92 862.12 1702.00 862.35 C 1698.73 862.33 1695.14 862.79 1692.41 860.63 C 1652.86 835.67 1613.02 811.16 1573.56 786.05 Z" />
<path fill="#200bc9" opacity="1.00" d=" M 2696.72 816.04 C 2707.27 807.21 2718.11 798.70 2728.48 789.66 C 2732.26 801.32 2735.80 813.21 2742.21 823.77 C 2749.26 836.90 2759.57 847.70 2770.34 857.81 C 2742.94 850.15 2717.25 835.77 2696.72 816.04 Z" />
<path fill="#200bc9" opacity="1.00" d=" M 3095.30 803.62 C 3097.25 802.64 3099.23 801.72 3101.26 800.82 C 3101.31 805.24 3101.29 809.67 3101.31 814.10 C 3086.74 829.60 3072.79 845.73 3057.80 860.80 C 3057.39 849.91 3057.69 839.01 3057.64 828.13 C 3070.59 820.68 3083.78 813.14 3095.30 803.62 Z" />
<path fill="#200bc9" opacity="1.00" d=" M 1479.23 856.18 C 1493.27 844.19 1508.27 833.43 1522.81 822.08 C 1522.78 835.62 1522.83 849.18 1522.79 862.73 C 1508.26 862.64 1493.73 862.64 1479.20 862.73 C 1479.19 860.54 1479.20 858.35 1479.23 856.18 Z" />
</g>
<g id="#950ac0ff">
<path fill="#950ac0" opacity="1.00" d=" M 704.23 542.42 C 706.35 542.37 708.39 546.20 710.35 547.83 C 696.89 561.14 683.66 574.68 670.09 587.87 C 668.12 585.94 666.18 583.98 664.30 581.98 C 677.60 568.78 690.80 555.48 704.23 542.42 Z" />
<path fill="#950ac0" opacity="1.00" d=" M 1176.85 549.41 C 1178.91 548.89 1181.00 548.45 1183.10 548.00 C 1191.03 556.14 1199.19 564.05 1207.00 572.31 C 1200.40 580.73 1196.07 590.62 1191.87 600.39 C 1187.93 596.73 1184.13 592.92 1180.31 589.14 C 1169.34 599.76 1158.46 610.46 1147.33 620.92 C 1137.29 615.78 1126.42 612.73 1115.57 609.91 C 1136.00 589.78 1156.09 569.14 1176.85 549.41 Z" />
<path fill="#950ac0" opacity="1.00" d=" M 1711.10 559.33 C 1730.06 559.29 1749.01 559.32 1767.97 559.32 C 1752.52 570.97 1737.32 582.95 1721.91 594.66 C 1719.49 582.56 1716.71 570.41 1711.10 559.33 Z" />
<path fill="#950ac0" opacity="1.00" d=" M 2106.36 593.45 C 2120.95 582.19 2135.31 570.64 2149.74 559.18 C 2149.60 582.14 2149.73 605.11 2149.67 628.07 C 2135.19 631.70 2120.85 635.86 2106.31 639.25 C 2106.35 623.99 2106.24 608.72 2106.36 593.45 Z" />
<path fill="#950ac0" opacity="1.00" d=" M 2205.92 559.30 C 2225.61 559.31 2245.31 559.34 2265.01 559.28 C 2266.48 559.35 2268.36 559.07 2269.40 560.48 C 2278.99 570.15 2288.84 579.56 2298.41 589.26 C 2282.14 593.74 2265.67 597.48 2249.45 602.15 C 2234.84 587.97 2220.25 573.75 2205.92 559.30 Z" />
<path fill="#950ac0" opacity="1.00" d=" M 1834.24 559.61 C 1848.57 573.32 1862.04 587.92 1876.13 601.89 C 1877.36 602.89 1877.99 604.34 1877.83 605.95 C 1877.81 637.68 1877.86 669.42 1877.80 701.15 C 1863.35 705.15 1848.92 709.26 1834.41 713.05 C 1833.90 661.91 1834.24 610.75 1834.24 559.61 Z" />
<path fill="#950ac0" opacity="1.00" d=" M 628.41 574.46 C 630.26 572.42 632.21 570.47 634.22 568.58 C 639.08 573.18 643.84 577.89 648.41 582.79 C 646.49 584.66 644.59 586.55 642.73 588.47 C 637.67 584.09 633.24 579.07 628.41 574.46 Z" />
<path fill="#950ac0" opacity="1.00" d=" M 2844.70 599.06 C 2862.51 588.49 2880.42 577.85 2898.85 568.38 C 2901.35 569.48 2903.87 570.58 2906.39 571.72 C 2903.08 588.03 2903.32 604.87 2905.89 621.26 C 2887.62 609.08 2866.37 601.99 2844.70 599.06 Z" />
<path fill="#950ac0" opacity="1.00" d=" M 886.29 632.09 C 892.67 631.05 898.65 628.48 904.86 626.76 C 917.01 639.00 929.18 651.23 941.30 663.50 C 935.06 666.39 928.86 669.37 922.60 672.20 C 912.76 672.53 902.90 672.12 893.06 672.06 C 892.50 658.72 891.10 645.26 886.48 632.65 L 886.29 632.09 Z" />
<path fill="#950ac0" opacity="1.00" d=" M 6.63 677.69 C 8.60 675.28 10.76 673.02 13.24 671.14 C 12.40 673.31 11.69 675.53 10.96 677.75 C 9.52 677.73 8.07 677.71 6.63 677.69 Z" />
<path fill="#950ac0" opacity="1.00" d=" M 213.69 713.70 C 215.71 712.18 218.16 711.40 220.69 711.84 C 220.87 717.34 220.48 722.84 220.40 728.33 C 222.35 735.94 218.76 743.39 218.56 751.00 C 194.17 776.09 169.03 800.52 144.30 825.29 C 142.83 826.56 141.56 828.40 139.55 828.80 C 139.00 828.93 137.90 829.18 137.35 829.31 C 121.81 814.39 106.94 798.77 91.54 783.71 C 94.87 773.17 99.55 763.12 103.37 752.76 C 115.49 763.95 126.95 775.82 138.93 787.16 C 163.82 762.65 189.42 738.83 213.69 713.70 Z" />
<path fill="#950ac0" opacity="1.00" d=" M 1211.22 757.07 C 1217.21 750.70 1223.71 744.79 1229.99 738.70 C 1238.17 744.92 1246.96 750.34 1256.24 754.76 C 1230.69 780.10 1205.26 805.57 1179.67 830.89 C 1176.98 828.23 1174.31 825.56 1171.67 822.88 C 1171.94 822.41 1172.48 821.49 1172.75 821.02 C 1192.27 804.84 1205.24 781.54 1211.22 757.07 Z" />
<path fill="#950ac0" opacity="1.00" d=" M 1571.72 785.06 C 1583.97 775.41 1596.54 766.18 1608.97 756.76 C 1615.86 761.11 1622.87 765.28 1629.65 769.80 C 1611.15 775.86 1592.10 780.14 1573.56 786.05 C 1573.10 785.80 1572.18 785.31 1571.72 785.06 Z" />
<path fill="#950ac0" opacity="1.00" d=" M 3057.64 821.06 C 3070.15 815.17 3082.32 808.45 3095.30 803.62 C 3083.78 813.14 3070.59 820.68 3057.64 828.13 C 3057.60 825.76 3057.60 823.41 3057.64 821.06 Z" />
<path fill="#950ac0" opacity="1.00" d=" M 2765.05 811.15 C 2765.58 811.08 2766.65 810.93 2767.18 810.86 C 2788.53 819.39 2811.79 823.24 2834.75 821.84 C 2845.46 837.64 2861.13 849.38 2877.55 858.80 C 2861.26 863.12 2844.41 865.77 2827.53 865.47 C 2820.25 860.12 2811.67 856.91 2804.39 851.58 C 2788.93 840.76 2774.98 827.26 2765.05 811.15 Z" />
</g>
<g id="#6d0f8cff">
<path fill="#6d0f8c" opacity="1.00" d=" M 760.93 542.86 C 765.57 544.51 770.15 546.34 774.43 548.83 C 772.10 549.02 769.79 549.32 767.49 549.62 C 765.20 547.46 762.95 545.27 760.93 542.86 Z" />
<path fill="#6d0f8c" opacity="1.00" d=" M 827.88 563.70 L 828.53 563.31 C 855.33 578.11 876.92 602.78 886.29 632.09 L 886.48 632.65 C 884.45 632.64 882.45 632.65 880.44 632.67 C 871.60 608.82 855.51 588.08 835.66 572.34 C 832.44 570.02 829.34 567.48 827.04 564.22 L 827.88 563.70 Z" />
<path fill="#6d0f8c" opacity="1.00" d=" M 173.09 595.06 C 188.93 603.27 202.50 615.07 214.10 628.52 C 216.07 631.76 218.28 634.86 220.65 637.83 C 227.30 650.32 233.98 663.13 236.38 677.24 C 233.30 677.31 230.22 677.37 227.13 677.43 C 206.79 655.68 185.97 634.34 164.40 613.78 C 166.71 607.28 170.10 601.26 173.09 595.06 Z" />
<path fill="#6d0f8c" opacity="1.00" d=" M 2696.65 680.79 C 2697.20 680.58 2698.30 680.17 2698.86 679.97 C 2698.49 681.63 2697.94 683.26 2697.31 684.84 C 2696.73 683.52 2696.51 682.17 2696.65 680.79 Z" />
<path fill="#6d0f8c" opacity="1.00" d=" M 2954.78 689.75 C 2960.17 693.08 2964.80 697.47 2970.19 700.82 C 2979.52 707.17 2990.12 711.24 3000.13 716.33 L 3000.79 716.71 C 2984.74 714.13 2970.43 706.15 2956.35 698.55 C 2955.89 695.60 2955.32 692.67 2954.78 689.75 Z" />
<path fill="#6d0f8c" opacity="1.00" d=" M 213.69 713.70 C 215.38 711.59 217.05 709.44 219.13 707.69 C 225.99 707.54 232.88 707.48 239.74 708.01 C 238.80 716.71 238.08 725.48 235.87 733.97 C 230.35 739.86 224.74 745.79 218.56 751.00 C 218.76 743.39 222.35 735.94 220.40 728.33 C 220.48 722.84 220.87 717.34 220.69 711.84 C 218.16 711.40 215.71 712.18 213.69 713.70 Z" />
<path fill="#6d0f8c" opacity="1.00" d=" M 1229.99 738.70 C 1233.94 734.68 1237.93 730.69 1241.90 726.69 C 1249.52 733.74 1259.56 737.19 1267.61 743.47 C 1263.78 747.19 1260.07 751.03 1256.24 754.76 C 1246.96 750.34 1238.17 744.92 1229.99 738.70 Z" />
</g>
<g id="#05111efe">
<path fill="#05111e" opacity="1.00" d=" M 13.24 671.14 C 54.81 628.86 97.42 587.56 139.27 545.52 C 152.59 558.22 165.35 571.55 178.28 584.65 C 176.50 588.09 174.78 591.57 173.09 595.06 C 170.10 601.26 166.71 607.28 164.40 613.78 C 156.15 605.45 147.58 597.43 139.30 589.13 C 110.81 616.70 82.11 644.05 54.85 672.85 C 52.78 674.65 51.13 677.84 48.03 677.71 C 35.67 677.79 23.31 677.72 10.96 677.75 C 11.69 675.53 12.40 673.31 13.24 671.14 Z" />
<path fill="#05111e" opacity="1.00" d=" M 2707.46 594.46 C 2760.35 551.92 2836.40 543.02 2898.85 568.38 C 2880.42 577.85 2862.51 588.49 2844.70 599.06 C 2804.33 594.09 2761.02 604.83 2730.48 632.45 C 2716.06 645.18 2704.54 661.49 2698.86 679.97 C 2698.30 680.17 2697.20 680.58 2696.65 680.79 C 2681.17 688.91 2666.05 697.69 2650.69 706.03 C 2650.46 662.58 2674.28 621.45 2707.46 594.46 Z" />
<path fill="#05111e" opacity="1.00" d=" M 2528.47 559.61 C 2549.92 558.92 2571.49 559.53 2592.99 559.31 C 2534.16 614.37 2474.71 668.79 2415.67 723.61 C 2414.52 724.74 2414.95 726.55 2414.79 728.00 C 2414.86 764.63 2414.76 801.26 2414.84 837.89 C 2400.33 845.89 2385.96 854.16 2371.74 862.64 L 2371.26 862.93 C 2371.07 815.92 2371.27 768.90 2371.16 721.88 C 2340.89 691.80 2310.19 662.16 2279.91 632.08 C 2292.78 624.33 2305.87 616.96 2318.68 609.12 C 2344.09 633.98 2369.34 659.01 2394.73 683.88 C 2439.32 642.46 2483.81 600.93 2528.47 559.61 Z" />
<path fill="#05111e" opacity="1.00" d=" M 1479.29 560.64 C 1488.75 569.37 1497.99 578.37 1507.15 587.44 C 1498.33 599.43 1488.97 611.03 1479.28 622.33 C 1479.13 601.76 1479.11 581.20 1479.29 560.64 Z" />
<path fill="#05111e" opacity="1.00" d=" M 1228.29 593.78 C 1256.27 621.18 1283.64 649.24 1311.16 677.11 C 1298.92 677.48 1286.66 677.43 1274.42 677.16 C 1249.73 656.17 1232.18 626.15 1228.29 593.78 Z" />
<path fill="#05111e" opacity="1.00" d=" M 16.49 707.77 C 29.66 707.40 42.83 707.70 56.00 707.58 C 59.20 707.06 61.28 709.70 63.24 711.75 C 76.36 725.67 89.88 739.21 103.37 752.76 C 99.55 763.12 94.87 773.17 91.54 783.71 C 66.78 758.15 41.03 733.53 16.49 707.77 Z" />
<path fill="#05111e" opacity="1.00" d=" M 3709.95 743.89 C 3726.11 737.58 3742.12 730.75 3758.56 725.20 C 3755.33 757.65 3740.48 788.54 3718.24 812.26 C 3689.52 842.95 3647.95 860.87 3606.02 861.66 C 3571.65 862.70 3536.94 852.46 3508.88 832.54 C 3511.26 831.38 3513.68 830.24 3516.15 829.18 C 3530.51 822.90 3545.02 816.96 3559.21 810.28 C 3579.81 817.81 3602.44 820.45 3624.03 815.91 C 3662.67 809.25 3696.70 780.82 3709.95 743.89 Z" />
<path fill="#05111e" opacity="1.00" d=" M 707.70 1189.43 C 716.86 1184.47 726.02 1179.53 735.25 1174.72 C 756.53 1195.89 777.51 1217.37 798.77 1238.58 C 751.05 1285.99 703.43 1333.50 655.68 1380.87 C 621.64 1346.84 587.69 1312.71 553.85 1278.48 C 562.37 1272.49 571.50 1267.46 580.26 1261.85 C 604.72 1287.72 630.41 1312.37 655.96 1337.14 C 672.17 1320.95 688.90 1305.31 705.30 1289.31 C 722.03 1272.52 738.32 1255.31 755.09 1238.57 C 739.39 1222.10 723.51 1205.80 707.70 1189.43 Z" />
</g>
<g id="#b70e3afe">
<path fill="#b70e3a" opacity="1.00" d=" M 767.49 549.62 C 769.79 549.32 772.10 549.02 774.43 548.83 C 792.91 550.68 811.55 554.40 827.88 563.70 L 827.04 564.22 C 822.39 566.93 818.17 570.29 814.27 573.98 C 835.12 590.61 854.31 610.49 864.44 635.60 C 867.44 641.00 875.77 633.74 878.51 639.41 C 882.09 648.92 884.21 659.02 885.06 669.16 C 845.88 629.30 806.89 589.26 767.49 549.62 Z" />
<path fill="#b70e3a" opacity="1.00" d=" M 1660.23 587.11 C 1670.47 579.40 1680.48 571.37 1690.78 563.72 C 1698.68 576.90 1702.54 591.86 1706.47 606.55 C 1696.48 614.37 1686.41 622.07 1676.35 629.79 C 1674.28 616.32 1669.88 603.27 1664.13 590.94 C 1663.41 589.15 1661.69 588.17 1660.23 587.11 Z" />
<path fill="#b70e3a" opacity="1.00" d=" M 3445.04 599.07 C 3452.64 596.85 3460.29 594.76 3467.91 592.57 C 3473.14 593.46 3468.50 598.26 3467.07 601.00 C 3465.47 603.95 3459.94 607.59 3463.84 610.84 C 3457.70 614.95 3451.50 619.04 3444.91 622.39 C 3444.51 614.62 3444.86 606.84 3445.04 599.07 Z" />
<path fill="#b70e3a" opacity="1.00" d=" M 841.00 685.72 C 853.48 685.65 865.96 685.61 878.44 685.74 C 878.19 693.90 868.86 695.64 863.48 699.74 C 856.04 700.41 848.48 699.79 841.00 700.00 C 840.99 695.24 840.99 690.48 841.00 685.72 Z" />
<path fill="#b70e3a" opacity="1.00" d=" M 3325.48 694.58 C 3333.40 694.18 3340.52 684.06 3348.17 689.44 C 3339.00 695.77 3330.13 702.52 3321.17 709.14 C 3312.96 714.66 3302.64 719.21 3299.14 729.25 C 3284.32 758.32 3282.05 792.73 3290.12 824.08 C 3275.63 810.11 3261.82 795.42 3247.83 780.96 C 3250.42 773.73 3253.57 766.72 3256.16 759.48 C 3270.85 742.30 3289.35 728.83 3307.11 714.97 C 3310.16 712.86 3313.11 710.58 3316.00 708.21 C 3324.13 702.67 3332.23 697.05 3340.05 691.07 C 3334.53 692.85 3329.39 695.58 3323.91 697.43 C 3324.35 696.47 3324.96 695.54 3325.48 694.58 Z" />
<path fill="#b70e3a" opacity="1.00" d=" M 469.90 699.63 C 470.60 698.68 471.68 697.57 472.99 698.14 C 474.03 699.90 470.85 701.04 469.90 699.63 Z" />
<path fill="#b70e3a" opacity="1.00" d=" M 2867.23 816.35 C 2877.70 813.40 2887.88 809.36 2897.40 804.07 C 2907.07 816.20 2920.58 824.40 2933.43 832.79 C 2925.25 838.55 2916.58 843.67 2907.43 847.73 C 2892.54 839.33 2878.73 829.02 2867.23 816.35 Z" />
</g>
<g id="#117dcaff">
<path fill="#117dca" opacity="1.00" d=" M 3057.56 559.43 C 3137.05 559.20 3216.55 559.31 3296.04 559.38 C 3330.81 560.29 3359.49 588.21 3369.95 620.01 C 3355.92 623.95 3341.86 627.75 3327.91 631.94 C 3322.16 617.33 3309.91 602.79 3292.96 602.74 C 3229.06 602.68 3165.16 602.58 3101.26 602.79 C 3101.48 635.55 3100.49 668.32 3101.30 701.07 C 3093.97 703.37 3086.71 705.87 3079.36 708.09 C 3072.06 706.93 3064.77 705.80 3057.46 704.82 C 3057.42 656.36 3057.64 607.89 3057.56 559.43 Z" />
<path fill="#117dca" opacity="1.00" d=" M 3444.24 559.61 C 3454.80 569.64 3464.79 580.26 3474.98 590.68 C 3472.59 591.29 3470.24 591.91 3467.91 592.57 C 3460.29 594.76 3452.64 596.85 3445.04 599.07 L 3444.28 599.34 C 3444.09 586.10 3444.15 572.85 3444.24 559.61 Z" />
<path fill="#117dca" opacity="1.00" d=" M 2987.40 668.63 C 2970.80 650.35 2958.61 627.68 2953.22 603.62 C 2974.23 622.79 2990.07 648.37 2996.17 676.26 C 2992.61 674.51 2989.83 671.67 2987.40 668.63 Z" />
<path fill="#117dca" opacity="1.00" d=" M 3716.33 683.07 C 3730.71 673.95 3745.47 665.41 3759.67 655.98 C 3759.13 679.04 3760.89 702.24 3758.56 725.20 C 3742.12 730.75 3726.11 737.58 3709.95 743.89 C 3717.00 724.40 3716.50 703.48 3716.33 683.07 Z" />
</g>
<g id="#cd0959ff">
<path fill="#cd0959" opacity="1.00" d=" M 1690.78 563.72 C 1693.96 560.45 1698.00 558.49 1702.66 559.46 C 1708.09 572.42 1712.91 585.60 1715.71 599.42 C 1712.63 601.80 1709.56 604.19 1706.47 606.55 C 1702.54 591.86 1698.68 576.90 1690.78 563.72 Z" />
<path fill="#cd0959" opacity="1.00" d=" M 1048.27 677.23 C 1070.28 654.39 1093.07 632.28 1115.57 609.91 C 1126.42 612.73 1137.29 615.78 1147.33 620.92 C 1129.25 638.31 1111.80 656.34 1094.39 674.40 C 1092.90 675.85 1091.31 677.71 1089.00 677.38 C 1075.42 677.30 1061.84 677.59 1048.27 677.23 Z" />
<path fill="#cd0959" opacity="1.00" d=" M 922.60 672.20 C 928.86 669.37 935.06 666.39 941.30 663.50 C 944.34 666.48 947.44 669.40 950.24 672.62 C 941.03 672.48 931.79 672.82 922.60 672.20 Z" />
<path fill="#cd0959" opacity="1.00" d=" M 878.44 685.74 C 933.92 685.64 989.40 685.63 1044.89 685.74 C 1044.69 690.49 1044.46 695.28 1045.24 700.00 C 984.66 699.83 924.05 700.34 863.48 699.74 C 868.86 695.64 878.19 693.90 878.44 685.74 Z" />
<path fill="#cd0959" opacity="1.00" d=" M 1056.79 707.22 C 1070.54 707.25 1084.30 707.13 1098.06 707.25 C 1100.41 707.06 1101.71 709.36 1103.26 710.74 C 1127.96 737.06 1154.06 762.01 1179.94 787.16 C 1183.68 783.37 1187.47 779.63 1191.33 775.97 C 1192.17 777.14 1192.77 778.53 1192.16 779.98 C 1188.95 791.26 1185.04 802.56 1178.28 812.25 C 1176.13 814.98 1174.07 817.79 1172.75 821.02 C 1172.48 821.49 1171.94 822.41 1171.67 822.88 C 1133.38 784.32 1094.85 746.00 1056.79 707.22 Z" />
<path fill="#cd0959" opacity="1.00" d=" M 880.46 712.57 C 881.64 711.36 883.47 711.70 885.00 711.59 C 904.30 711.64 923.58 712.36 942.88 712.30 C 858.09 796.70 773.13 880.94 688.39 965.39 C 684.40 969.28 680.62 973.40 676.38 977.02 C 676.43 957.33 676.32 937.64 676.29 917.95 C 676.31 916.69 676.31 915.29 677.40 914.46 C 722.66 869.70 768.47 825.49 813.24 780.24 C 835.63 757.67 858.09 735.15 880.46 712.57 Z" />
<path fill="#cd0959" opacity="1.00" d=" M 2854.69 819.33 C 2858.91 818.57 2863.09 817.54 2867.23 816.35 C 2878.73 829.02 2892.54 839.33 2907.43 847.73 C 2903.52 849.61 2899.58 851.41 2895.52 852.89 C 2892.30 850.16 2888.66 848.05 2885.04 845.97 C 2873.41 838.93 2864.32 828.72 2854.69 819.33 Z" />
<path fill="#cd0959" opacity="1.00" d=" M 652.00 824.98 C 655.23 824.98 658.46 825.00 661.69 825.12 C 661.56 909.70 661.56 994.30 661.69 1078.88 C 658.46 1078.99 655.23 1079.01 652.00 1079.02 C 652.00 994.34 652.00 909.66 652.00 824.98 Z" />
<path fill="#cd0959" opacity="1.00" d=" M 553.60 893.12 C 565.68 884.92 577.33 876.11 589.16 867.56 C 604.86 883.28 621.02 898.61 636.32 914.67 C 636.98 935.36 636.44 956.14 636.72 976.87 C 609.15 948.82 581.16 921.18 553.60 893.12 Z" />
<path fill="#cd0959" opacity="1.00" d=" M 553.75 1198.01 C 587.24 1163.21 622.34 1129.89 656.29 1095.49 C 667.31 1105.92 677.74 1116.97 688.47 1127.70 C 678.96 1132.75 669.15 1137.25 659.74 1142.49 C 658.59 1141.36 657.45 1140.24 656.31 1139.13 C 652.26 1143.01 648.30 1146.99 644.18 1150.79 C 613.52 1165.50 584.02 1182.55 553.75 1198.01 Z" />
</g>
<g id="#a20c6aff">
<path fill="#a20c6a" opacity="1.00" d=" M 1702.66 559.46 C 1705.46 559.42 1708.27 559.37 1711.10 559.33 C 1716.71 570.41 1719.49 582.56 1721.91 594.66 C 1719.88 596.29 1717.81 597.88 1715.71 599.42 C 1712.91 585.60 1708.09 572.42 1702.66 559.46 Z" />
<path fill="#a20c6a" opacity="1.00" d=" M 814.27 573.98 C 818.17 570.29 822.39 566.93 827.04 564.22 C 829.34 567.48 832.44 570.02 835.66 572.34 C 855.51 588.08 871.60 608.82 880.44 632.67 C 882.45 632.65 884.45 632.64 886.48 632.65 C 891.10 645.26 892.50 658.72 893.06 672.06 C 890.04 672.15 886.92 671.83 885.06 669.16 C 884.21 659.02 882.09 648.92 878.51 639.41 C 875.77 633.74 867.44 641.00 864.44 635.60 C 854.31 610.49 835.12 590.61 814.27 573.98 Z" />
<path fill="#a20c6a" opacity="1.00" d=" M 3467.91 592.57 C 3470.24 591.91 3472.59 591.29 3474.98 590.68 C 3477.63 593.40 3480.30 596.11 3482.99 598.82 C 3476.48 602.62 3469.95 606.43 3463.84 610.84 C 3459.94 607.59 3465.47 603.95 3467.07 601.00 C 3468.50 598.26 3473.14 593.46 3467.91 592.57 Z" />
<path fill="#a20c6a" opacity="1.00" d=" M 1191.33 775.97 C 1197.91 769.62 1204.25 762.98 1211.22 757.07 C 1205.24 781.54 1192.27 804.84 1172.75 821.02 C 1174.07 817.79 1176.13 814.98 1178.28 812.25 C 1185.04 802.56 1188.95 791.26 1192.16 779.98 C 1192.77 778.53 1192.17 777.14 1191.33 775.97 Z" />
<path fill="#a20c6a" opacity="1.00" d=" M 3255.33 759.51 L 3256.16 759.48 C 3253.57 766.72 3250.42 773.73 3247.83 780.96 C 3246.14 779.30 3244.49 777.63 3242.86 775.97 C 3246.64 770.22 3250.66 764.59 3255.33 759.51 Z" />
<path fill="#a20c6a" opacity="1.00" d=" M 2834.75 821.84 C 2841.43 821.41 2848.06 820.39 2854.69 819.33 C 2864.32 828.72 2873.41 838.93 2885.04 845.97 C 2888.66 848.05 2892.30 850.16 2895.52 852.89 C 2889.62 855.14 2883.66 857.25 2877.55 858.80 C 2861.13 849.38 2845.46 837.64 2834.75 821.84 Z" />
</g>
<g id="#6040ccff">
<path fill="#6040cc" opacity="1.00" d=" M 2906.39 571.72 C 2908.63 572.81 2910.89 573.91 2913.15 575.05 C 2911.56 589.70 2911.77 605.00 2915.86 619.24 C 2913.55 620.62 2911.27 622.02 2908.98 623.37 C 2907.91 622.65 2906.90 621.94 2905.89 621.26 C 2903.32 604.87 2903.08 588.03 2906.39 571.72 Z" />
</g>
<g id="#3f59ccff">
<path fill="#3f59cc" opacity="1.00" d=" M 2913.15 575.05 C 2926.78 582.06 2939.74 590.68 2950.86 601.27 C 2939.54 607.92 2927.23 612.70 2915.86 619.24 C 2911.77 605.00 2911.56 589.70 2913.15 575.05 Z" />
</g>
<g id="#43609cff">
<path fill="#43609c" opacity="1.00" d=" M 2950.86 601.27 C 2951.75 601.04 2952.62 602.84 2953.22 603.62 C 2958.61 627.68 2970.80 650.35 2987.40 668.63 C 2989.83 671.67 2992.61 674.51 2996.17 676.26 C 3000.28 688.73 3001.31 703.03 3000.13 716.33 C 2990.12 711.24 2979.52 707.17 2970.19 700.82 C 2964.80 697.47 2960.17 693.08 2954.78 689.75 C 2949.24 662.54 2931.44 639.12 2908.98 623.37 C 2911.27 622.02 2913.55 620.62 2915.86 619.24 C 2927.23 612.70 2939.54 607.92 2950.86 601.27 Z" />
<path fill="#43609c" opacity="1.00" d=" M 3057.46 704.82 C 3064.77 705.80 3072.06 706.93 3079.36 708.09 C 3072.21 710.75 3065.02 713.34 3057.63 715.25 C 3057.35 711.77 3057.37 708.29 3057.46 704.82 Z" />
<path fill="#43609c" opacity="1.00" d=" M 3539.44 800.27 C 3545.72 804.16 3552.38 807.43 3559.21 810.28 C 3545.02 816.96 3530.51 822.90 3516.15 829.18 C 3522.40 818.41 3530.54 808.92 3539.44 800.27 Z" />
</g>
<g id="#160794c1">
<path fill="#160794" opacity="0.76" d=" M 207.91 614.71 C 228.18 633.89 247.76 653.96 267.07 674.13 C 248.67 666.32 233.80 652.49 220.65 637.83 C 218.28 634.86 216.07 631.76 214.10 628.52 C 212.44 623.74 209.80 619.39 207.91 614.71 Z" />
<path fill="#160794" opacity="0.76" d=" M 2129.07 784.05 C 2130.27 763.69 2136.95 743.74 2147.91 726.56 C 2146.76 746.81 2139.36 766.66 2129.07 784.05 Z" />
</g>
<g id="#720fcfff">
<path fill="#720fcf" opacity="1.00" d=" M 2730.41 787.78 C 2741.28 797.44 2753.82 805.15 2767.18 810.86 C 2766.65 810.93 2765.58 811.08 2765.05 811.15 C 2774.98 827.26 2788.93 840.76 2804.39 851.58 C 2811.67 856.91 2820.25 860.12 2827.53 865.47 C 2808.24 866.05 2788.79 863.41 2770.34 857.81 C 2759.57 847.70 2749.26 836.90 2742.21 823.77 C 2735.80 813.21 2732.26 801.32 2728.48 789.66 C 2728.97 789.19 2729.93 788.25 2730.41 787.78 Z" />
</g>
</svg>
