<?xml version="1.0" encoding="UTF-8" ?>
<!DOCTYPE svg PUBLIC "-//W3C//DTD SVG 1.1//EN" "http://www.w3.org/Graphics/SVG/1.1/DTD/svg11.dtd">
<svg width="659pt" height="691pt" viewBox="0 0 659 691" version="1.1" xmlns="http://www.w3.org/2000/svg">
<g id="#1b1834ff">
<path fill="#1b1834" opacity="1.00" d=" M 256.63 71.34 C 280.48 47.61 304.36 23.91 328.23 0.20 C 351.96 24.05 375.69 47.90 399.38 71.80 C 375.51 95.49 351.70 119.26 327.83 142.95 C 304.10 119.08 280.28 95.29 256.63 71.34 M 304.24 45.23 C 295.57 53.86 287.22 62.80 278.52 71.39 C 286.08 79.20 293.63 87.02 301.17 94.84 C 309.95 103.73 319.07 112.26 327.91 121.09 C 333.48 115.60 339.12 110.17 344.77 104.77 C 356.08 94.12 366.61 82.70 377.57 71.71 C 371.92 65.93 366.29 60.13 360.69 54.31 C 350.18 43.23 338.98 32.84 328.15 22.08 C 320.20 29.82 312.20 37.51 304.24 45.23 Z" />
<path fill="#1b1834" opacity="1.00" d=" M 326.00 153.50 C 327.60 153.50 329.20 153.50 330.80 153.51 C 330.79 193.84 330.79 234.16 330.80 274.49 C 329.20 274.49 327.60 274.50 326.00 274.50 C 326.00 234.17 326.00 193.83 326.00 153.50 Z" />
<path fill="#1b1834" opacity="1.00" d=" M 337.30 197.62 C 383.33 243.84 429.27 290.15 475.29 336.36 C 464.91 336.07 454.49 336.42 444.12 335.85 C 423.54 315.82 403.91 294.77 383.47 274.58 C 370.77 261.93 358.05 249.31 345.32 236.69 C 342.77 233.96 339.76 231.63 337.52 228.63 C 337.19 218.30 337.42 207.95 337.30 197.62 Z" />
<path fill="#1b1834" opacity="1.00" d=" M 184.97 332.95 C 229.09 288.96 273.35 245.10 317.49 201.12 C 317.44 211.05 317.59 220.99 317.53 230.93 C 317.64 232.14 316.44 232.85 315.78 233.70 C 290.19 258.79 264.55 283.83 239.41 309.38 C 231.39 317.36 223.56 325.54 215.41 333.38 C 205.26 333.10 195.11 333.20 184.97 332.95 Z" />
<path fill="#1b1834" opacity="1.00" d=" M 300.49 273.45 C 301.50 272.45 302.52 271.46 303.54 270.47 C 310.41 277.47 317.37 284.37 324.28 291.32 C 323.26 292.30 322.25 293.29 321.23 294.27 C 314.34 287.31 307.41 280.38 300.49 273.45 Z" />
<path fill="#1b1834" opacity="1.00" d=" M 352.29 270.87 C 353.27 271.86 354.27 272.86 355.26 273.87 C 348.51 280.56 341.79 287.28 335.06 293.99 C 334.07 292.99 333.08 291.98 332.09 290.99 C 338.83 284.29 345.56 277.58 352.29 270.87 Z" />
<path fill="#1b1834" opacity="1.00" d=" M 3.12 338.89 C 25.30 316.80 47.52 294.76 69.74 272.71 C 91.68 294.73 113.56 316.81 135.50 338.83 C 129.34 338.86 123.17 338.83 117.00 338.88 C 115.65 338.75 113.98 339.20 113.02 337.96 C 109.33 334.34 105.84 330.52 102.22 326.83 C 91.71 315.74 80.47 305.37 69.67 294.57 C 54.53 309.09 39.52 323.75 24.98 338.87 C 17.69 338.89 10.40 338.87 3.12 338.89 Z" />
<path fill="#1b1834" opacity="1.00" d=" M 523.81 338.70 C 545.87 316.66 568.09 294.78 590.14 272.73 C 612.18 294.56 633.89 316.72 655.81 338.66 C 648.60 338.65 641.40 338.68 634.20 338.65 C 619.88 323.60 605.10 309.01 590.16 294.58 C 575.07 309.02 560.11 323.59 545.67 338.68 C 538.38 338.72 531.10 338.70 523.81 338.70 Z" />
<path fill="#1b1834" opacity="1.00" d=" M 300.98 322.01 C 307.91 315.07 314.89 308.17 321.81 301.22 C 322.80 302.22 323.79 303.22 324.79 304.22 C 317.84 311.15 310.89 318.08 303.94 325.01 C 302.94 324.00 301.96 323.01 300.98 322.01 Z" />
<path fill="#1b1834" opacity="1.00" d=" M 331.51 304.57 C 332.51 303.57 333.51 302.58 334.52 301.59 C 341.22 308.34 347.94 315.07 354.65 321.81 C 353.65 322.79 352.66 323.78 351.67 324.77 C 344.94 318.05 338.24 311.29 331.51 304.57 Z" />
<path fill="#1b1834" opacity="1.00" d=" M 239.93 333.31 C 246.20 333.35 252.46 333.32 258.73 333.33 C 258.68 334.68 258.63 336.03 258.60 337.40 C 256.35 337.34 254.10 337.30 251.85 337.26 C 251.67 344.21 251.81 351.16 251.76 358.10 C 250.10 358.10 248.44 358.10 246.78 358.10 C 246.76 351.18 246.78 344.25 246.77 337.33 C 244.46 337.32 242.15 337.32 239.85 337.32 C 239.88 335.98 239.91 334.64 239.93 333.31 Z" />
<path fill="#1b1834" opacity="1.00" d=" M 262.48 335.50 C 267.20 330.67 277.06 332.24 278.75 339.28 C 277.17 339.56 275.61 339.84 274.04 340.11 C 273.06 336.02 265.77 335.10 265.69 340.03 C 268.36 343.88 274.08 343.33 277.02 346.98 C 280.02 349.69 279.62 355.03 276.17 357.19 C 270.38 360.67 261.47 358.25 259.69 351.29 C 263.20 348.96 264.34 353.97 267.44 354.38 C 269.40 354.85 271.90 355.10 273.40 353.44 C 274.43 352.19 273.64 350.38 272.40 349.61 C 269.09 347.51 264.84 346.96 262.07 344.00 C 259.81 341.67 260.31 337.71 262.48 335.50 Z" />
<path fill="#1b1834" opacity="1.00" d=" M 282.41 333.33 C 284.12 333.33 285.83 333.33 287.54 333.33 C 287.66 339.21 287.28 345.12 287.72 350.99 C 288.03 354.62 293.06 356.01 295.52 353.61 C 297.07 352.20 297.17 349.96 297.24 348.02 C 297.29 343.11 297.20 338.20 297.24 333.28 C 298.92 333.33 300.60 333.37 302.28 333.41 C 301.96 339.63 302.71 345.91 301.83 352.09 C 300.30 361.22 284.36 361.07 282.80 352.02 C 281.94 345.84 282.64 339.55 282.41 333.33 Z" />
<path fill="#1b1834" opacity="1.00" d=" M 316.64 333.34 C 321.37 333.61 326.34 332.56 330.89 334.16 C 335.57 336.11 335.49 342.80 331.84 345.77 C 335.14 349.02 334.28 353.94 334.99 358.10 C 333.31 358.10 331.63 358.10 329.95 358.10 C 329.50 354.98 329.90 351.57 328.43 348.69 C 326.58 347.06 323.89 347.93 321.67 347.68 C 321.67 351.15 321.67 354.62 321.67 358.10 C 320.00 358.10 318.32 358.10 316.66 358.11 C 316.64 349.85 316.67 341.60 316.64 333.34 M 321.64 337.24 C 321.64 339.41 321.64 341.59 321.63 343.77 C 323.83 343.66 326.16 344.10 328.25 343.29 C 329.90 341.76 329.85 338.59 327.61 337.64 C 325.71 336.97 323.62 337.34 321.64 337.24 Z" />
<path fill="#1b1834" opacity="1.00" d=" M 338.42 333.33 C 340.13 333.33 341.84 333.33 343.55 333.33 C 343.67 339.24 343.28 345.18 343.74 351.08 C 344.13 354.65 349.07 355.98 351.53 353.62 C 353.10 352.20 353.19 349.93 353.25 347.96 C 353.30 343.07 353.22 338.19 353.25 333.30 C 354.92 333.33 356.60 333.35 358.28 333.39 C 357.91 339.90 358.93 346.55 357.61 352.98 C 356.23 358.45 349.53 359.58 344.81 358.34 C 341.17 357.59 338.77 354.08 338.56 350.51 C 338.22 344.79 338.53 339.05 338.42 333.33 Z" />
<path fill="#1b1834" opacity="1.00" d=" M 372.66 333.35 C 374.97 333.33 377.29 333.33 379.61 333.33 C 382.42 339.81 385.18 346.31 388.08 352.75 C 388.17 346.27 388.10 339.80 388.13 333.32 C 389.76 333.32 391.40 333.32 393.05 333.32 C 393.13 341.58 393.07 349.84 393.08 358.11 C 390.80 358.10 388.52 358.09 386.25 358.08 C 383.41 351.63 380.69 345.13 377.72 338.74 C 377.62 345.20 377.71 351.65 377.67 358.11 C 376.00 358.10 374.34 358.10 372.68 358.10 C 372.66 349.85 372.70 341.60 372.66 333.35 Z" />
<path fill="#1b1834" opacity="1.00" d=" M 397.49 333.35 C 403.11 333.32 408.74 333.32 414.36 333.34 C 414.35 334.32 414.34 336.29 414.33 337.27 C 410.43 337.26 406.54 337.27 402.65 337.24 C 402.63 339.25 402.62 341.27 402.61 343.30 C 406.19 343.29 409.76 343.29 413.34 343.32 C 413.32 344.30 413.29 346.26 413.28 347.24 C 409.72 347.22 406.15 347.22 402.60 347.27 C 402.61 349.55 402.62 351.83 402.64 354.12 C 406.68 354.12 410.72 354.12 414.77 354.12 C 414.76 355.44 414.75 356.77 414.75 358.10 C 409.00 358.10 403.25 358.11 397.50 358.10 C 397.49 349.85 397.51 341.60 397.49 333.35 Z" />
<path fill="#1b1834" opacity="1.00" d=" M 134.92 349.97 C 135.15 347.59 135.36 345.21 135.55 342.83 C 169.19 342.84 202.83 342.85 236.47 342.83 C 236.49 345.21 236.51 347.59 236.52 349.98 C 202.65 350.01 168.79 350.02 134.92 349.97 Z" />
<path fill="#1b1834" opacity="1.00" d=" M 420.45 342.95 C 454.43 342.70 488.41 342.91 522.40 342.84 C 522.37 345.23 522.42 347.62 522.54 350.01 C 488.53 349.98 454.51 350.03 420.50 349.98 C 420.49 347.63 420.48 345.29 420.45 342.95 Z" />
<path fill="#1b1834" opacity="1.00" d=" M 7.95 353.77 C 14.66 353.79 21.37 353.71 28.09 353.77 C 30.02 353.58 31.11 355.50 32.38 356.62 C 44.22 369.44 57.04 381.28 69.39 393.60 C 82.96 380.39 96.74 367.40 109.83 353.72 C 117.02 353.73 124.21 353.72 131.40 353.72 C 110.73 374.30 90.03 394.85 69.37 415.45 C 48.85 394.93 28.40 374.35 7.95 353.77 Z" />
<path fill="#1b1834" opacity="1.00" d=" M 528.22 353.56 C 535.45 353.61 542.67 353.50 549.90 353.62 C 562.83 367.34 576.43 380.40 589.89 393.59 C 602.51 381.30 615.40 369.27 627.51 356.47 C 628.83 355.32 629.93 353.32 631.96 353.55 C 638.66 353.47 645.37 353.56 652.07 353.53 C 631.34 374.18 610.60 394.83 589.83 415.44 C 569.28 394.82 548.74 374.20 528.22 353.56 Z" />
<path fill="#1b1834" opacity="1.00" d=" M 186.73 356.02 C 197.06 356.03 207.39 355.91 217.71 356.08 C 250.80 390.16 284.39 423.75 318.20 457.13 C 318.42 467.55 318.30 477.97 318.36 488.39 C 274.48 444.27 230.61 400.14 186.73 356.02 Z" />
<path fill="#1b1834" opacity="1.00" d=" M 417.86 378.83 C 425.53 371.15 433.11 363.37 440.84 355.76 C 451.03 355.82 461.22 356.10 471.41 356.17 C 427.05 400.36 382.56 444.43 338.22 488.65 C 338.19 478.39 338.19 468.13 338.12 457.86 C 364.66 431.48 391.63 405.53 417.86 378.83 Z" />
<path fill="#1b1834" opacity="1.00" d=" M 309.15 367.85 C 322.19 367.86 335.23 367.85 348.27 367.86 C 341.76 379.16 335.20 390.43 328.73 401.75 C 322.18 390.47 315.66 379.16 309.15 367.85 Z" />
<path fill="#1b1834" opacity="1.00" d=" M 326.00 412.50 C 327.60 412.49 329.20 412.50 330.80 412.51 C 330.79 454.83 330.78 497.16 330.81 539.48 C 329.20 539.49 327.60 539.49 326.00 539.51 C 326.00 497.17 326.00 454.83 326.00 412.50 Z" />
<path fill="#1b1834" opacity="1.00" d=" M 256.63 618.88 C 280.39 595.10 304.35 571.53 328.11 547.76 C 352.07 571.38 375.58 595.48 399.39 619.27 C 375.55 643.00 351.70 666.73 327.84 690.44 C 304.07 666.62 280.32 642.77 256.63 618.88 M 278.52 618.96 C 294.64 635.84 311.09 652.39 327.89 668.59 C 344.81 652.49 361.35 636.01 377.57 619.21 C 361.44 602.33 345.01 585.74 328.16 569.58 C 311.24 585.66 294.70 602.13 278.52 618.96 Z" />
</g>
</svg>
