<svg class="kuyoru-master" width="901pt" height="193pt" viewBox="0 0 901 193" version="1.1" xmlns="http://www.w3.org/2000/svg">
    <g id="#ff0c00ff">
        <path fill="#ff0c00" opacity="1.00" d=" M 214.21 31.22 C 217.31 31.22 220.41 31.22 223.52 31.29 C 225.64 35.90 228.00 40.40 230.16 44.99 C 227.13 45.02 224.11 45.02 221.08 44.99 C 218.79 40.40 216.54 35.79 214.21 31.22 Z"></path>
        <path fill="#ff0c00" opacity="1.00" d=" M 71.11 50.95 C 83.11 51.99 95.17 51.86 107.19 51.00 C 107.21 54.33 107.21 57.66 107.19 61.00 C 102.16 60.80 97.14 60.29 92.10 60.39 C 92.18 67.63 92.22 74.87 92.07 82.11 C 95.70 82.12 99.31 81.14 102.94 81.60 C 100.50 86.10 98.94 93.75 92.16 90.79 C 92.14 99.72 92.17 108.64 92.14 117.56 C 96.85 115.31 101.41 112.77 106.05 110.39 C 106.22 113.58 106.41 116.77 106.60 119.96 C 95.07 124.90 83.87 130.57 72.61 136.09 C 71.75 132.60 70.56 129.20 69.16 125.90 C 74.54 124.23 79.93 122.54 85.04 120.15 C 84.97 110.34 85.14 100.52 84.94 90.71 C 81.07 90.98 77.20 91.37 73.34 91.74 C 73.27 88.22 73.27 84.71 73.35 81.19 C 77.21 81.75 81.10 82.10 85.00 82.11 C 85.06 74.85 85.03 67.59 85.01 60.33 C 80.36 60.37 75.72 60.68 71.09 61.16 C 71.09 57.76 71.09 54.35 71.11 50.95 Z"></path>
        <path fill="#ff0c00" opacity="1.00" d=" M 223.32 54.81 C 223.80 54.81 224.75 54.82 225.22 54.82 C 226.95 57.38 228.92 59.76 230.95 62.08 C 229.82 64.04 228.69 66.01 227.59 67.99 C 239.97 67.89 252.38 68.51 264.73 67.43 C 264.04 70.24 263.31 73.05 262.59 75.85 C 250.03 76.14 237.44 75.65 224.86 75.75 C 220.70 85.09 215.09 93.68 209.10 101.94 C 206.88 100.18 204.39 98.83 201.78 97.77 C 211.53 84.95 219.48 70.54 223.32 54.81 Z"></path>
        <path fill="#ff0c00" opacity="1.00" d=" M 142.65 66.58 C 145.43 66.39 148.22 66.29 151.01 66.25 C 148.44 78.47 144.49 90.46 138.42 101.41 C 131.72 117.14 119.47 129.78 105.93 139.89 C 103.81 137.22 101.27 134.91 98.32 133.18 C 112.02 124.62 124.27 113.05 131.45 98.40 C 136.76 88.42 140.06 77.54 142.65 66.58 Z"></path>
        <path fill="#ff0c00" opacity="1.00" d=" M 323.91 79.02 C 326.13 78.91 328.35 78.95 330.57 79.11 C 330.58 89.25 330.50 99.39 330.61 109.53 C 336.41 104.32 341.73 98.53 347.87 93.72 C 348.35 95.58 350.13 97.52 349.55 99.46 C 343.61 105.96 335.86 110.80 330.88 118.16 C 330.07 123.62 330.82 129.27 330.55 134.81 C 328.33 134.83 326.11 134.84 323.89 134.83 C 323.85 116.23 323.81 97.62 323.91 79.02 Z"></path>
        <path fill="#ff0c00" opacity="1.00" d=" M 445.75 79.91 C 449.00 82.16 452.21 84.47 455.27 86.97 C 452.57 88.68 449.79 90.25 446.99 91.76 C 446.64 87.80 446.21 83.85 445.75 79.91 Z"></path>
        <path fill="#ff0c00" opacity="1.00" d=" M 191.99 92.95 C 191.57 87.66 197.59 86.36 200.63 83.28 C 200.36 102.14 200.58 121.01 200.52 139.87 C 197.26 139.91 194.00 139.91 190.75 139.85 C 192.28 124.26 191.71 108.59 191.99 92.95 Z"></path>
        <path fill="#ff0c00" opacity="1.00" d=" M 458.94 93.04 C 469.19 91.82 479.21 99.07 481.71 108.99 C 484.86 119.76 478.25 131.68 467.85 135.46 C 467.12 133.45 466.55 131.38 466.19 129.28 C 471.52 126.55 475.95 121.28 475.67 115.01 C 476.12 106.52 468.40 98.96 459.91 99.55 C 459.59 97.37 459.26 95.20 458.94 93.04 Z"></path>
        <path fill="#ff0c00" opacity="1.00" d=" M 386.37 94.09 C 388.64 94.09 390.91 94.12 393.19 94.16 C 392.79 104.80 394.51 115.80 391.43 126.16 C 388.32 135.22 377.36 137.71 368.96 135.41 C 370.07 133.38 371.31 131.42 372.59 129.49 C 377.94 130.16 384.72 128.09 385.71 122.03 C 387.10 112.81 386.02 103.39 386.37 94.09 Z"></path>
        <path fill="#ff0c00" opacity="1.00" d=" M 399.05 94.18 C 401.26 94.12 403.49 94.11 405.71 94.12 C 408.57 100.90 411.46 107.67 414.32 114.45 C 416.06 117.73 413.44 120.92 411.51 123.40 C 407.36 113.65 403.15 103.94 399.05 94.18 Z"></path>
        <path fill="#ff0c00" opacity="1.00" d=" M 430.34 94.24 C 432.44 94.15 434.54 94.05 436.66 94.03 C 427.73 115.27 418.58 136.42 409.47 157.58 C 408.60 160.97 404.61 161.00 401.82 161.56 C 410.99 138.98 421.21 116.84 430.34 94.24 Z"></path>
        <path fill="#ff0c00" opacity="1.00" d=" M 540.78 94.15 C 543.06 94.12 545.34 94.11 547.63 94.12 C 547.19 104.73 548.94 115.67 546.06 126.03 C 543.18 134.65 533.05 137.50 524.89 135.77 C 525.65 133.64 526.54 131.56 527.49 129.50 C 532.76 130.16 539.11 127.90 540.24 122.12 C 541.31 112.85 540.47 103.46 540.78 94.15 Z"></path>
        <path fill="#ff0c00" opacity="1.00" d=" M 239.88 121.98 C 241.63 120.05 243.37 118.10 245.06 116.10 C 252.74 121.93 261.44 126.11 270.28 129.84 C 268.01 132.65 266.16 135.76 264.37 138.89 C 256.05 133.49 247.45 128.43 239.88 121.98 Z"></path>
        <path fill="#ff0c00" opacity="1.00" d=" M 417.16 147.02 C 568.11 146.99 719.06 146.99 870.00 147.01 C 870.00 147.76 870.00 149.24 870.00 149.99 C 718.61 150.01 567.22 149.99 415.83 150.00 C 416.27 149.00 416.72 148.01 417.16 147.02 Z"></path>
        <path fill="#ff0c00" opacity="1.00" d=" M 414.77 151.59 C 415.81 151.39 416.87 151.26 417.95 151.21 C 565.63 151.25 713.31 151.22 861.00 151.23 C 864.09 151.26 867.24 150.95 870.31 151.60 C 718.47 151.88 566.60 151.90 414.77 151.59 Z"></path>
    </g>
    <g id="#000000ff">
        <path fill="#000000" opacity="1.00" d=" M 124.17 34.90 C 127.27 36.18 130.26 37.68 133.21 39.29 C 131.60 44.27 129.72 49.16 128.05 54.13 C 136.61 54.14 145.21 54.43 153.74 53.54 C 153.19 56.64 152.66 59.74 152.19 62.85 C 143.20 63.22 134.20 62.31 125.21 62.85 C 121.57 72.31 117.48 81.69 111.84 90.15 C 109.34 88.70 106.67 87.54 103.90 86.72 C 113.80 70.94 121.03 53.30 124.17 34.90 Z"></path>
        <path fill="#000000" opacity="1.00" d=" M 178.06 45.99 C 208.46 47.48 238.97 47.61 269.36 45.97 C 269.45 49.28 269.43 52.59 269.30 55.90 C 254.64 54.63 239.92 54.82 225.22 54.82 C 224.75 54.82 223.80 54.81 223.32 54.81 C 208.24 55.14 193.13 54.64 178.07 55.86 C 178.01 52.57 178.00 49.28 178.06 45.99 Z"></path>
        <path fill="#000000" opacity="1.00" d=" M 205.38 58.23 C 209.22 58.29 211.43 62.79 214.47 64.83 C 202.84 74.38 190.62 83.58 176.97 90.04 C 175.95 87.65 174.86 85.28 173.70 82.94 C 186.59 78.23 196.55 68.37 205.38 58.23 Z"></path>
        <path fill="#000000" opacity="1.00" d=" M 235.35 78.87 C 241.14 79.85 246.05 86.29 242.83 91.94 C 240.01 98.01 230.95 98.37 227.43 92.76 C 230.99 92.84 235.36 93.03 237.39 89.44 C 240.06 85.94 238.02 81.63 235.35 78.87 Z"></path>
        <path fill="#000000" opacity="1.00" d=" M 252.22 81.84 C 255.05 81.65 257.89 81.62 260.74 81.69 C 256.66 96.37 248.48 109.89 236.95 119.90 C 228.91 128.34 219.20 135.07 208.59 139.85 C 207.32 136.74 205.43 133.94 203.03 131.59 C 213.54 128.02 223.06 122.01 231.28 114.60 C 226.65 109.29 221.86 104.08 218.15 98.05 C 219.51 95.62 220.86 93.18 222.23 90.75 C 226.77 97.03 231.15 103.48 236.76 108.89 C 243.46 100.89 248.67 91.66 252.22 81.84 Z"></path>
        <path fill="#000000" opacity="1.00" d=" M 495.52 98.72 C 497.55 93.30 504.09 91.36 508.73 94.84 C 507.76 96.48 506.80 98.12 505.83 99.75 C 500.32 98.54 497.02 103.80 496.40 108.55 C 495.20 117.26 495.99 126.08 495.71 134.84 C 493.50 134.85 491.30 134.86 489.10 134.87 C 488.61 121.30 488.73 107.70 489.03 94.13 C 491.23 94.08 493.43 94.03 495.64 93.98 C 495.61 95.56 495.57 97.14 495.52 98.72 Z"></path>
        <path fill="#000000" opacity="1.00" d=" M 440.78 114.01 C 440.79 105.32 446.82 97.72 454.46 94.11 C 455.03 96.28 455.52 98.46 455.93 100.66 C 449.27 104.68 445.65 113.15 448.63 120.59 C 450.61 126.28 456.33 129.59 462.15 129.94 C 462.46 131.99 462.75 134.05 463.01 136.11 C 450.90 137.29 440.06 125.93 440.78 114.01 Z"></path>
        <path fill="#000000" opacity="1.00" d=" M 141.18 105.19 C 142.16 101.90 143.93 98.91 145.50 95.88 C 149.25 110.18 157.60 122.51 167.02 133.68 C 164.41 135.50 162.00 137.59 159.77 139.85 C 151.46 129.64 144.02 118.20 141.18 105.19 Z"></path>
        <path fill="#000000" opacity="1.00" d=" M 357.83 102.00 C 360.10 102.01 362.37 102.04 364.64 102.08 C 364.89 110.03 363.53 118.29 366.39 125.92 C 365.26 127.87 364.01 129.75 362.39 131.33 C 356.08 122.89 358.17 111.81 357.83 102.00 Z"></path>
        <path fill="#000000" opacity="1.00" d=" M 512.36 102.06 C 514.65 102.04 516.94 102.03 519.24 102.06 C 520.23 110.37 516.74 120.23 522.65 127.22 C 521.62 129.28 520.46 131.26 519.15 133.16 C 510.05 125.46 512.94 112.51 512.36 102.06 Z"></path>
        <path fill="#000000" opacity="1.00" d=" M 333.17 119.93 C 334.43 118.62 335.70 117.30 336.97 115.98 C 341.74 120.72 346.90 125.07 351.54 129.94 C 350.30 131.28 349.07 132.64 347.85 133.99 C 342.75 129.52 337.93 124.75 333.17 119.93 Z"></path>
        <path fill="#000000" opacity="1.00" d=" M 31.59 147.00 C 155.91 146.99 280.22 147.02 404.53 146.99 C 404.32 147.69 403.89 149.08 403.67 149.78 C 279.66 150.29 155.61 149.86 31.58 150.00 C 31.59 149.25 31.59 147.75 31.59 147.00 Z"></path>
        <path fill="#000000" opacity="1.00" d=" M 30.86 151.54 C 33.23 151.26 35.62 151.18 38.00 151.20 C 159.71 151.42 281.43 150.92 403.13 151.45 C 401.09 151.71 399.04 151.81 397.00 151.80 C 274.95 151.57 152.89 152.09 30.86 151.54 Z"></path>
    </g>
</svg>