<svg width="1202" height="258" viewBox="0 0 1202 258" fill="none" xmlns="http://www.w3.org/2000/svg">
    <path d="M285.613 41.6266C289.747 41.6266 293.88 41.6267 298.027 41.72C300.853 47.8667 304 53.8667 306.88 59.9867C302.84 60.0267 298.813 60.0267 294.773 59.9867C291.72 53.8667 288.72 47.72 285.613 41.6266Z" fill="#FF0C00"/>
    <path d="M94.8134 67.9333C110.813 69.32 126.893 69.1467 142.92 68C142.947 72.44 142.947 76.88 142.92 81.3333C136.213 81.0667 129.52 80.3867 122.8 80.52C122.907 90.1733 122.96 99.8267 122.76 109.48C127.6 109.493 132.413 108.187 137.253 108.8C134 114.8 131.92 125 122.88 121.053C122.853 132.96 122.893 144.853 122.853 156.747C129.133 153.747 135.213 150.36 141.4 147.187C141.627 151.44 141.88 155.693 142.133 159.947C126.76 166.533 111.827 174.093 96.8134 181.453C95.6667 176.8 94.08 172.267 92.2134 167.867C99.3867 165.64 106.573 163.387 113.387 160.2C113.293 147.12 113.52 134.027 113.253 120.947C108.093 121.307 102.933 121.827 97.7867 122.32C97.6934 117.627 97.6934 112.947 97.8 108.253C102.947 109 108.133 109.467 113.333 109.48C113.413 99.8 113.373 90.12 113.347 80.44C107.147 80.4933 100.96 80.9067 94.7867 81.5467C94.7867 77.0133 94.7867 72.4667 94.8134 67.9333Z" fill="#FF0C00"/>
    <path d="M297.76 73.08C298.4 73.08 299.667 73.0933 300.293 73.0933C302.6 76.5067 305.227 79.68 307.933 82.7733C306.427 85.3867 304.92 88.0133 303.453 90.6533C319.96 90.52 336.507 91.3467 352.973 89.9067C352.053 93.6533 351.08 97.4 350.12 101.133C333.373 101.52 316.587 100.867 299.813 101C294.267 113.453 286.787 124.907 278.8 135.92C275.84 133.573 272.52 131.773 269.04 130.36C282.04 113.267 292.64 94.0533 297.76 73.08Z" fill="#FF0C00"/>
    <path d="M190.2 88.7733C193.907 88.52 197.627 88.3866 201.347 88.3333C197.92 104.627 192.653 120.613 184.56 135.213C175.627 156.187 159.293 173.04 141.24 186.52C138.413 182.96 135.027 179.88 131.093 177.573C149.36 166.16 165.693 150.733 175.267 131.2C182.347 117.893 186.747 103.387 190.2 88.7733Z" fill="#FF0C00"/>
    <path d="M431.88 105.36C434.84 105.213 437.8 105.267 440.76 105.48C440.773 119 440.667 132.52 440.813 146.04C448.547 139.093 455.64 131.373 463.827 124.96C464.467 127.44 466.84 130.027 466.067 132.613C458.147 141.28 447.813 147.733 441.173 157.547C440.093 164.827 441.093 172.36 440.733 179.747C437.773 179.773 434.813 179.787 431.853 179.773C431.8 154.973 431.747 130.16 431.88 105.36Z" fill="#FF0C00"/>
    <path d="M594.333 106.547C598.667 109.547 602.947 112.627 607.027 115.96C603.427 118.24 599.72 120.333 595.987 122.347C595.52 117.067 594.947 111.8 594.333 106.547Z" fill="#FF0C00"/>
    <path d="M255.987 123.933C255.427 116.88 263.453 115.147 267.507 111.04C267.147 136.187 267.44 161.347 267.36 186.493C263.013 186.547 258.667 186.547 254.333 186.467C256.373 165.68 255.613 144.787 255.987 123.933Z" fill="#FF0C00"/>
    <path d="M611.92 124.053C625.587 122.427 638.947 132.093 642.28 145.32C646.48 159.68 637.667 175.573 623.8 180.613C622.827 177.933 622.067 175.173 621.587 172.373C628.693 168.733 634.6 161.707 634.227 153.347C634.827 142.027 624.533 131.947 613.213 132.733C612.787 129.827 612.347 126.933 611.92 124.053Z" fill="#FF0C00"/>
    <path d="M515.16 125.453C518.187 125.453 521.213 125.493 524.253 125.547C523.72 139.733 526.013 154.4 521.907 168.213C517.76 180.293 503.147 183.613 491.947 180.547C493.427 177.84 495.08 175.227 496.787 172.653C503.92 173.547 512.96 170.787 514.28 162.707C516.133 150.413 514.693 137.853 515.16 125.453Z" fill="#FF0C00"/>
    <path d="M532.067 125.573C535.013 125.493 537.987 125.48 540.947 125.493C544.76 134.533 548.613 143.56 552.427 152.6C554.747 156.973 551.253 161.227 548.68 164.533C543.147 151.533 537.533 138.587 532.067 125.573Z" fill="#FF0C00"/>
    <path d="M573.787 125.653C576.587 125.533 579.387 125.4 582.213 125.373C570.307 153.693 558.107 181.893 545.96 210.107C544.8 214.627 539.48 214.667 535.76 215.413C547.987 185.307 561.613 155.787 573.787 125.653Z" fill="#FF0C00"/>
    <path d="M721.04 125.533C724.08 125.493 727.12 125.48 730.173 125.493C729.587 139.64 731.92 154.227 728.08 168.04C724.24 179.533 710.733 183.333 699.853 181.027C700.867 178.187 702.053 175.413 703.32 172.667C710.347 173.547 718.813 170.533 720.32 162.827C721.747 150.467 720.627 137.947 721.04 125.533Z" fill="#FF0C00"/>
    <path d="M319.84 162.64C322.173 160.067 324.493 157.467 326.747 154.8C336.987 162.573 348.587 168.147 360.373 173.12C357.347 176.867 354.88 181.013 352.493 185.187C341.4 177.987 329.933 171.24 319.84 162.64Z" fill="#FF0C00"/>
    <path d="M556.213 196.027C757.48 195.987 958.747 195.987 1160 196.013C1160 197.013 1160 198.987 1160 199.987C958.147 200.013 756.293 199.987 554.44 200C555.027 198.667 555.627 197.347 556.213 196.027Z" fill="#FF0C00"/>
    <path d="M553.027 202.12C554.413 201.853 555.827 201.68 557.267 201.613C754.173 201.667 951.08 201.627 1148 201.64C1152.12 201.68 1156.32 201.267 1160.41 202.133C957.96 202.507 755.467 202.533 553.027 202.12Z" fill="#FF0C00"/>
    <path d="M165.56 46.5333C169.693 48.24 173.68 50.24 177.613 52.3867C175.467 59.0267 172.96 65.5467 170.733 72.1733C182.147 72.1867 193.613 72.5733 204.987 71.3867C204.253 75.52 203.547 79.6533 202.92 83.8C190.933 84.2933 178.933 83.08 166.947 83.8C162.093 96.4133 156.64 108.92 149.12 120.2C145.787 118.267 142.227 116.72 138.533 115.627C151.733 94.5867 161.373 71.0667 165.56 46.5333Z" fill="black"/>
    <path d="M237.413 61.32C277.947 63.3067 318.627 63.48 359.147 61.2933C359.267 65.7067 359.24 70.12 359.067 74.5333C339.52 72.84 319.893 73.0933 300.293 73.0933C299.667 73.0933 298.4 73.08 297.76 73.08C277.653 73.52 257.507 72.8533 237.427 74.48C237.347 70.0933 237.333 65.7067 237.413 61.32Z" fill="black"/>
    <path d="M273.84 77.64C278.96 77.72 281.907 83.72 285.96 86.44C270.453 99.1733 254.16 111.44 235.96 120.053C234.6 116.867 233.147 113.707 231.6 110.587C248.787 104.307 262.067 91.16 273.84 77.64Z" fill="black"/>
    <path d="M313.8 105.16C321.52 106.467 328.067 115.053 323.773 122.587C320.013 130.68 307.933 131.16 303.24 123.68C307.987 123.787 313.813 124.04 316.52 119.253C320.08 114.587 317.36 108.84 313.8 105.16Z" fill="black"/>
    <path d="M336.293 109.12C340.067 108.867 343.853 108.827 347.653 108.92C342.213 128.493 331.307 146.52 315.933 159.867C305.213 171.12 292.267 180.093 278.12 186.467C276.427 182.32 273.907 178.587 270.707 175.453C284.72 170.693 297.413 162.68 308.373 152.8C302.2 145.72 295.813 138.773 290.867 130.733C292.68 127.493 294.48 124.24 296.307 121C302.36 129.373 308.2 137.973 315.68 145.187C324.613 134.52 331.56 122.213 336.293 109.12Z" fill="black"/>
    <path d="M660.693 131.627C663.4 124.4 672.12 121.813 678.307 126.453C677.013 128.64 675.733 130.827 674.44 133C667.093 131.387 662.693 138.4 661.867 144.733C660.267 156.347 661.32 168.107 660.947 179.787C658 179.8 655.067 179.813 652.133 179.827C651.48 161.733 651.64 143.6 652.04 125.507C654.973 125.44 657.907 125.373 660.853 125.307C660.813 127.413 660.76 129.52 660.693 131.627Z" fill="black"/>
    <path d="M587.707 152.013C587.72 140.427 595.76 130.293 605.947 125.48C606.707 128.373 607.36 131.28 607.907 134.213C599.027 139.573 594.2 150.867 598.173 160.787C600.813 168.373 608.44 172.787 616.2 173.253C616.613 175.987 617 178.733 617.347 181.48C601.2 183.053 586.747 167.907 587.707 152.013Z" fill="black"/>
    <path d="M188.24 140.253C189.547 135.867 191.907 131.88 194 127.84C199 146.907 210.133 163.347 222.693 178.24C219.213 180.667 216 183.453 213.027 186.467C201.947 172.853 192.027 157.6 188.24 140.253Z" fill="black"/>
    <path d="M477.107 136C480.133 136.013 483.16 136.053 486.187 136.107C486.52 146.707 484.707 157.72 488.52 167.893C487.013 170.493 485.347 173 483.187 175.107C474.773 163.853 477.56 149.08 477.107 136Z" fill="black"/>
    <path d="M683.147 136.08C686.2 136.053 689.253 136.04 692.32 136.08C693.64 147.16 688.987 160.307 696.867 169.627C695.493 172.373 693.947 175.013 692.2 177.547C680.067 167.28 683.92 150.013 683.147 136.08Z" fill="black"/>
    <path d="M444.227 159.907C445.907 158.16 447.6 156.4 449.293 154.64C455.653 160.96 462.533 166.76 468.72 173.253C467.067 175.04 465.427 176.853 463.8 178.653C457 172.693 450.573 166.333 444.227 159.907Z" fill="black"/>
    <path d="M42.1199 196C207.88 195.987 373.627 196.027 539.373 195.987C539.093 196.92 538.52 198.773 538.227 199.707C372.88 200.387 207.48 199.813 42.1066 200C42.1199 199 42.1199 197 42.1199 196Z" fill="black"/>
    <path d="M41.1466 202.053C44.3066 201.68 47.4933 201.573 50.6666 201.6C212.947 201.893 375.24 201.227 537.507 201.933C534.787 202.28 532.053 202.413 529.333 202.4C366.6 202.093 203.853 202.787 41.1466 202.053Z" fill="black"/>
</svg>
